<svg xmlns="http://www.w3.org/2000/svg" version="1.1" xmlns:xlink="http://www.w3.org/1999/xlink" width="1000" height="1000"><g clip-path="url(#SvgjsClipPath1132)"><rect width="1000" height="1000" fill="#25313b"></rect><g transform="matrix(0.9259259259259259,0,0,0.9259259259259259,0,0)"><svg xmlns="http://www.w3.org/2000/svg" version="1.1" xmlns:xlink="http://www.w3.org/1999/xlink" width="1080" height="1080"><svg version="1.1" id="Layer_1" xmlns="http://www.w3.org/2000/svg" xmlns:xlink="http://www.w3.org/1999/xlink" x="0px" y="0px" viewBox="0 0 1080 1080" style="enable-background:new 0 0 1080 1080;" xml:space="preserve">
<style type="text/css">
	.st0{fill:#25313B;}
	.st1{fill:#FFFFFF;}
	.st2{fill:#B23618;}
	.st3{fill:#9E3216;}
</style>
<title>Blauw Beeld</title>
<rect y="1.2" class="st0" width="1080" height="1080"></rect>
<polygon class="st1" points="546.7,730.4 423,668.3 345.9,478.3 382.8,354.2 491,308.3 546,334.6 602.3,308.3 733.9,366.2 
	752.9,504.9 668.1,673.5 "></polygon>
<polygon class="st2" points="585.1,444.8 628.5,416.5 687.6,430.7 624.1,456.2 599.8,449.6 598.8,464.5 "></polygon>
<polygon class="st2" points="515.4,444.8 472.1,416.5 412.9,430.7 476.4,456.2 500.8,449.6 501.7,464.9 "></polygon>
<polygon class="st2" points="494.1,534.3 540.3,572.5 546,591.7 469.7,629.9 550.3,608.7 550.3,534.3 "></polygon>
<polygon class="st2" points="508.8,616.9 593.4,616.9 550.3,600.7 "></polygon>
<polygon class="st3" points="500.8,449.6 412.9,430.7 476.4,456.2 "></polygon>
<polygon class="st3" points="624.1,456.2 599.8,449.6 687.6,430.7 "></polygon>
<polygon class="st3" points="550.3,534.3 550.3,616.9 581.8,616.9 631,629.6 554.5,591.7 560.3,572.5 606.4,534.3 "></polygon>
<polygon class="st2" points="549.2,345.1 528.5,206.3 372.5,206.6 495.9,312.7 "></polygon>
<polygon class="st2" points="396.5,368.4 222.2,368.4 350.5,206.6 495.9,312.7 "></polygon>
<polygon class="st2" points="396.5,368.4 227,410 237.4,609.6 372.7,491.2 "></polygon>
<polygon class="st2" points="454.8,576 442.5,615.9 347.2,749.4 254.4,674.6 372.7,491.2 "></polygon>
<polygon class="st2" points="442.5,615.9 365.7,764.6 502.6,876.1 "></polygon>
<polygon class="st2" points="550.3,727.2 502.6,876.1 452.4,679.9 "></polygon>
<polygon class="st3" points="237.4,609.6 332.8,553 372.7,491.2 "></polygon>
<polygon class="st3" points="222.7,368.4 312.5,389 396.9,368.4 "></polygon>
<polygon class="st3" points="373,206.6 419.7,257.1 495.9,312.7 "></polygon>
<polygon class="st3" points="347.2,749.4 394.8,709.4 442.5,615.9 "></polygon>
<polygon class="st3" points="502.6,876.1 549.8,796.5 549.8,727.2 "></polygon>
<polygon class="st3" points="528.5,206.3 549.2,276 549.2,345.1 "></polygon>
<polygon class="st2" points="549.2,345.1 569.9,206.3 725.9,206.6 602.5,312.7 "></polygon>
<polygon class="st2" points="702,368.4 876.2,368.4 747.9,206.6 602.5,312.7 "></polygon>
<polygon class="st2" points="702,368.4 871.4,410 861,609.6 725.7,491.2 "></polygon>
<polygon class="st2" points="643.6,576 655.9,615.9 751.2,749.4 844,674.6 725.7,491.2 "></polygon>
<polygon class="st2" points="655.9,615.9 732.7,764.6 595.8,876.1 "></polygon>
<polygon class="st2" points="548.1,727.2 595.8,876.1 646,679.9 "></polygon>
<polygon class="st3" points="861,609.6 765.6,553 725.7,491.2 "></polygon>
<polygon class="st3" points="875.7,368.4 785.8,389 701.5,368.4 "></polygon>
<polygon class="st3" points="725.5,206.6 678.7,257.1 602.5,312.7 "></polygon>
<polygon class="st3" points="751.2,749.4 703.6,709.4 655.9,615.9 "></polygon>
<polygon class="st3" points="595.8,876.1 548.6,796.5 548.6,727.2 "></polygon>
<polygon class="st3" points="569.9,206.3 549.2,276 549.2,345.1 "></polygon>
</svg></svg></g></g><defs><clipPath id="SvgjsClipPath1132"><rect width="1000" height="1000" x="0" y="0" rx="300" ry="300"></rect></clipPath></defs></svg>