<?xml version="1.0" encoding="UTF-8"?>
<svg id="Laag_1" data-name="Laag 1" xmlns="http://www.w3.org/2000/svg" xmlns:xlink="http://www.w3.org/1999/xlink" viewBox="0 0 1133.55 387.29">
  <defs>
    <style>
      .cls-1 {
        fill: url(#Naamloos_verloop_13);
      }

      .cls-2 {
        fill: #161b4e;
      }

      .cls-3 {
        fill: #e20613;
      }
    </style>
    <linearGradient id="Naamloos_verloop_13" data-name="Naamloos verloop 13" x1="96.43" y1="387.29" x2="96.43" y2="0" gradientUnits="userSpaceOnUse">
      <stop offset="0" stop-color="#161b4e"/>
      <stop offset="1" stop-color="#e20613"/>
    </linearGradient>
  </defs>
  <path class="cls-1" d="M112.1,60.09c1.03-1.23,1-3.03-.08-4.21l-14.68-16.12c-.61-.67-1.46-1.04-2.36-1.04h-14.95s15.76,17.08,15.76,17.08c1.12,1.22,1.13,3.1.01,4.32l-15.77,17.31h16.01c.94,0,1.84-.42,2.45-1.14l13.63-16.19ZM152.1,98.84c1.03-1.23,1-3.03-.08-4.21l-14.68-16.12c-.61-.67-1.46-1.04-2.36-1.04h-14.95s15.76,17.08,15.76,17.08c1.12,1.22,1.13,3.1.01,4.32l-15.77,17.31h16.01c.94,0,1.84-.42,2.45-1.14l13.63-16.19ZM192.11,137.52c1.03-1.23,1-3.03-.08-4.21l-14.68-16.12c-.61-.67-1.46-1.04-2.36-1.04h-14.95s15.76,17.08,15.76,17.08c1.12,1.22,1.13,3.1.01,4.32l-15.77,17.31h16.01c.94,0,1.84-.42,2.45-1.14l13.63-16.19ZM32.08,215.06c1.03-1.23,1-3.03-.08-4.21l-14.68-16.12c-.61-.67-1.46-1.04-2.36-1.04H0s15.76,17.08,15.76,17.08c1.12,1.22,1.13,3.1.01,4.32L0,232.39h16.01c.94,0,1.84-.42,2.45-1.14l13.63-16.19ZM72.09,253.74c1.03-1.23,1-3.03-.08-4.21l-14.68-16.12c-.61-.67-1.46-1.04-2.36-1.04h-14.95s15.76,17.08,15.76,17.08c1.12,1.22,1.13,3.1.01,4.32l-15.77,17.31h16.01c.94,0,1.84-.42,2.45-1.14l13.63-16.19ZM112.1,292.49c1.03-1.23,1-3.03-.08-4.21l-14.68-16.12c-.61-.67-1.46-1.04-2.36-1.04h-14.95s15.76,17.08,15.76,17.08c1.12,1.22,1.13,3.1.01,4.32l-15.77,17.31h16.01c.94,0,1.84-.42,2.45-1.14l13.63-16.19ZM192.11,292.49c1.03-1.23,1-3.03-.08-4.21l-14.68-16.12c-.61-.67-1.46-1.04-2.36-1.04h-14.95s15.76,17.08,15.76,17.08c1.12,1.22,1.13,3.1.01,4.32l-15.77,17.31h16.01c.94,0,1.84-.42,2.45-1.14l13.63-16.19ZM152.1,331.24c1.03-1.23,1-3.03-.08-4.21l-14.68-16.12c-.61-.67-1.46-1.04-2.36-1.04h-14.95s15.76,17.08,15.76,17.08c1.12,1.22,1.13,3.1.01,4.32l-15.77,17.31h16.01c.94,0,1.84-.42,2.45-1.14l13.63-16.19ZM192.11,369.96c1.03-1.23,1-3.03-.08-4.21l-14.68-16.12c-.61-.67-1.46-1.04-2.36-1.04h-14.95s15.76,17.08,15.76,17.08c1.12,1.22,1.13,3.1.01,4.32l-15.77,17.31h16.01c.94,0,1.84-.42,2.45-1.14l13.63-16.19ZM40.01,77.44l15.76,17.08c1.12,1.22,1.13,3.1.01,4.32l-15.77,17.31h16.01c.94,0,1.84-.42,2.45-1.14l13.63-16.19c1.03-1.23,1-3.03-.08-4.21l-14.68-16.12c-.61-.67-1.46-1.04-2.36-1.04h-14.95M40.01,0l15.76,17.08c1.12,1.22,1.13,3.1.01,4.32l-15.77,17.31h16.01c.94,0,1.84-.42,2.45-1.14l13.63-16.19c1.03-1.23,1-3.03-.08-4.21L57.32,1.04C56.72.38,55.86,0,54.96,0h-14.95M112.1,137.56c1.03-1.23,1-3.03-.08-4.21l-14.68-16.12c-.61-.67-1.46-1.04-2.36-1.04h-14.95s15.76,17.08,15.76,17.08c1.12,1.22,1.13,3.1.01,4.32l-15.77,17.31h16.01c.94,0,1.84-.42,2.45-1.14l13.63-16.19ZM152.1,176.31c1.03-1.23,1-3.03-.08-4.21l-14.68-16.12c-.61-.67-1.46-1.04-2.36-1.04h-14.95s15.76,17.08,15.76,17.08c1.12,1.22,1.13,3.1.01,4.32l-15.77,17.31h16.01c.94,0,1.84-.42,2.45-1.14l13.63-16.19ZM72.09,176.31c1.03-1.23,1-3.03-.08-4.21l-14.68-16.12c-.61-.67-1.46-1.04-2.36-1.04h-14.95s15.76,17.08,15.76,17.08c1.12,1.22,1.13,3.1.01,4.32l-15.77,17.31h16.01c.94,0,1.84-.42,2.45-1.14l13.63-16.19ZM112.1,215.06c1.03-1.23,1-3.03-.08-4.21l-14.68-16.12c-.61-.67-1.46-1.04-2.36-1.04h-14.95s15.76,17.08,15.76,17.08c1.12,1.22,1.13,3.1.01,4.32l-15.77,17.31h16.01c.94,0,1.84-.42,2.45-1.14l13.63-16.19ZM152.1,253.74c1.03-1.23,1-3.03-.08-4.21l-14.68-16.12c-.61-.67-1.46-1.04-2.36-1.04h-14.95s15.76,17.08,15.76,17.08c1.12,1.22,1.13,3.1.01,4.32l-15.77,17.31h16.01c.94,0,1.84-.42,2.45-1.14l13.63-16.19Z"/>
  <g>
    <path class="cls-2" d="M366.96,178.6h-23.12v-11.31h-.34c-5.74,10.13-16.2,13.67-25.99,13.67-26.67,0-37.8-23.62-37.8-48.26,0-31.05,17.55-46.24,37.3-46.24,15.19,0,22.27,8.27,25.99,14.01h.34v-43.03h23.63v121.17ZM323.42,161.55c15.01,0,20.92-12.49,20.92-25.82,0-14.35-4.05-28.86-20.25-28.86-15.02,0-20.08,13.33-20.08,27.51,0,10.63,4.21,27.17,19.41,27.17Z"/>
    <path class="cls-2" d="M464.51,152.27c-6.24,21.6-24.13,28.69-39.49,28.69-25.32,0-44.72-12.15-44.72-49.11,0-10.8,3.72-45.4,43.03-45.4,17.72,0,42.19,8.44,42.19,49.45v4.22h-61.6c.68,6.75,2.03,21.94,21.1,21.94,6.58,0,13.33-3.37,15.19-9.79h24.3ZM441.23,124.76c-1.35-14.51-10.63-18.9-18.23-18.9-11.14,0-17.05,7.09-18.39,18.9h36.62Z"/>
    <path class="cls-2" d="M561.73,178.6h-23.63v-54.51c0-6.58-.34-17.72-15.36-17.72-10.46,0-18.56,7.09-18.56,20.76v51.47h-23.63v-89.78h22.61v13.16h.34c3.21-5.4,9.96-15.53,27-15.53s31.22,10.29,31.22,30.04v62.1Z"/>
    <path class="cls-2" d="M710.42,178.6h-23.63v-54.51c0-6.58-.34-17.72-15.36-17.72-10.46,0-18.56,7.09-18.56,20.76v51.47h-23.63V57.43h23.63v43.03h.34c3.04-7.42,13.16-14.01,25.99-14.01,17.55,0,31.22,10.29,31.22,30.04v62.1Z"/>
    <path class="cls-2" d="M804.44,161.05c0,10.63,2.36,12.99,5.23,14v3.55h-25.48c-1.35-4.22-1.69-5.57-2.2-10.63-5.4,5.57-12.99,12.99-29.02,12.99-13.5,0-27.34-7.59-27.34-26.16,0-17.55,11.14-26.49,26.16-28.69l21.26-3.21c3.72-.51,8.27-2.03,8.27-7.09,0-9.96-9.45-10.46-15.53-10.46-11.81,0-13.83,7.26-14.51,12.49h-22.78c2.7-27.51,21.77-31.39,40.16-31.39,12.66,0,35.78,3.88,35.78,25.99v48.6ZM781.32,134.89c-2.36,1.86-6.25,3.37-16.03,4.89-8.77,1.52-16.03,3.71-16.03,13.5,0,8.27,6.41,10.8,10.97,10.8,10.46,0,21.1-6.75,21.1-17.72v-11.47Z"/>
    <path class="cls-2" d="M824.7,88.82h22.61v15.52h.34c4.9-9.11,10.3-17.89,24.64-17.89,1.52,0,3.04.17,4.56.34v23.96c-2.03-.34-4.56-.34-6.75-.34-18.39,0-21.77,11.47-21.77,21.43v46.75h-23.63v-89.78Z"/>
    <path class="cls-2" d="M919.72,88.82h14.68v16.88h-14.68v48.77c0,5.23.17,7.26,9.79,7.26,1.52,0,3.21-.17,4.9-.34v17.89c-3.72.17-7.43.34-11.14.34h-3.04c-20.41,0-24.13-7.76-24.13-19.41v-54.51h-12.15v-16.88h12.15v-24.3h23.63v24.3Z"/>
    <path class="cls-2" d="M989.42,180.96c-24.14,0-45.91-14.85-45.91-47.25s21.77-47.25,45.91-47.25,45.9,14.85,45.9,47.25-21.77,47.25-45.9,47.25ZM989.42,106.37c-18.23,0-21.6,15.87-21.6,27.34s3.37,27.34,21.6,27.34,21.6-15.87,21.6-27.34-3.38-27.34-21.6-27.34Z"/>
    <path class="cls-2" d="M1133.55,88.82v85.05c0,15.53-1.18,41.35-45.4,41.35-18.57,0-38.14-7.93-39.16-27h25.65c1.01,4.56,2.87,9.11,16.54,9.11,12.66,0,18.74-6.08,18.74-20.59v-10.8l-.34-.34c-3.88,6.92-9.79,13.5-23.96,13.5-21.6,0-38.64-15.02-38.64-46.41s17.55-46.24,37.29-46.24c16.71,0,23.46,9.79,26.32,15.69h.34v-13.33h22.61ZM1090.01,159.19c16.03,0,20.08-13.67,20.08-25.99,0-14.51-7.09-26.33-20.25-26.33-8.77,0-18.56,6.41-18.56,27.34,0,11.47,4.72,24.98,18.73,24.98Z"/>
  </g>
  <g>
    <path class="cls-3" d="M314.22,257.97c-2.73,9.43-10.53,12.52-17.24,12.52-11.05,0-19.52-5.3-19.52-21.43,0-4.71,1.62-19.81,18.78-19.81,7.73,0,18.41,3.68,18.41,21.58v1.84h-26.88c.3,2.95.88,9.57,9.21,9.57,2.87,0,5.82-1.47,6.63-4.27h10.61ZM304.06,245.96c-.59-6.34-4.64-8.25-7.95-8.25-4.86,0-7.44,3.09-8.03,8.25h15.98Z"/>
    <path class="cls-3" d="M356.65,269.46h-10.31v-23.79c0-2.87-.15-7.73-6.7-7.73-4.57,0-8.1,3.09-8.1,9.06v22.46h-10.31v-39.19h9.87v5.75h.15c1.4-2.36,4.35-6.78,11.79-6.78s13.63,4.5,13.63,13.11v27.11Z"/>
    <path class="cls-3" d="M399.58,257.97c-2.73,9.43-10.53,12.52-17.23,12.52-11.05,0-19.52-5.3-19.52-21.43,0-4.71,1.62-19.81,18.78-19.81,7.73,0,18.41,3.68,18.41,21.58v1.84h-26.88c.3,2.95.88,9.57,9.21,9.57,2.87,0,5.82-1.47,6.63-4.27h10.61ZM389.42,245.96c-.59-6.34-4.64-8.25-7.95-8.25-4.86,0-7.44,3.09-8.03,8.25h15.98Z"/>
    <path class="cls-3" d="M406.5,230.27h9.87v6.78h.15c2.13-3.98,4.49-7.81,10.75-7.81.66,0,1.32.07,1.99.15v10.46c-.88-.15-1.99-.15-2.95-.15-8.03,0-9.5,5.01-9.5,9.36v20.4h-10.31v-39.19Z"/>
    <path class="cls-3" d="M469.77,230.27v37.12c0,6.78-.52,18.04-19.81,18.04-8.1,0-16.64-3.46-17.09-11.78h11.2c.44,1.99,1.25,3.98,7.22,3.98,5.52,0,8.18-2.65,8.18-8.98v-4.71l-.15-.15c-1.7,3.02-4.27,5.89-10.46,5.89-9.43,0-16.87-6.56-16.87-20.26s7.66-20.18,16.28-20.18c7.29,0,10.24,4.27,11.49,6.85h.15v-5.82h9.87ZM450.77,260.99c6.99,0,8.76-5.97,8.76-11.35,0-6.33-3.09-11.49-8.84-11.49-3.83,0-8.1,2.8-8.1,11.93,0,5.01,2.06,10.9,8.18,10.9Z"/>
    <path class="cls-3" d="M489.14,225.63h-10.31v-9.57h10.31v9.57ZM489.14,230.27v39.19h-10.31v-39.19h10.31Z"/>
    <path class="cls-3" d="M532.37,257.97c-2.73,9.43-10.53,12.52-17.23,12.52-11.05,0-19.52-5.3-19.52-21.43,0-4.71,1.62-19.81,18.78-19.81,7.73,0,18.41,3.68,18.41,21.58v1.84h-26.88c.3,2.95.88,9.57,9.21,9.57,2.87,0,5.82-1.47,6.63-4.27h10.61ZM522.21,245.96c-.59-6.34-4.64-8.25-7.95-8.25-4.86,0-7.44,3.09-8.03,8.25h15.98Z"/>
    <path class="cls-3" d="M561.54,242.2c-.44-2.51-1.33-5.15-6.93-5.15s-6.33,2.13-6.33,3.83c0,6.19,24.53,1.69,24.53,16.13,0,11.42-11.05,13.48-17.16,13.48-8.91,0-18.56-3.09-18.86-13.55h10.61c0,3.31,2.06,5.74,8.54,5.74,5.3,0,6.55-2.58,6.55-4.05,0-6.55-24.31-1.62-24.31-16.28,0-5.74,3.61-13.11,15.84-13.11,7.66,0,16.79,1.91,17.6,12.96h-10.09Z"/>
  </g>
</svg>