<?xml version="1.0" encoding="UTF-8"?>
<svg xmlns="http://www.w3.org/2000/svg" id="Laag_1" data-name="Laag 1" viewBox="0 0 395.99 107.74">
  <defs>
    <style>
      .cls-1 {
        fill: #fff;
      }

      .cls-2 {
        fill: #07ae7b;
      }

      .cls-3 {
        fill: #2c3e50;
      }
    </style>
  </defs>
  <rect class="cls-3" x="0" y="6.37" width="387.82" height="101.37" rx="37.02" ry="37.02"></rect>
  <circle class="cls-2" cx="378.19" cy="17.8" r="17.8"></circle>
  <path class="cls-1" d="m355.84,69.49s.01-.02.02-.03l-7.16-7.16s0,.02-.01.03l-6.25-6.25-6.74,6.74,17.96,17.96,6.74-6.74-4.55-4.55Z"></path>
  <path class="cls-1" d="m340.1,70.45c-1.41.48-2.92.76-4.5.76-7.78,0-14.09-6.31-14.09-14.09s6.31-14.09,14.09-14.09,14.09,6.31,14.09,14.09c0,.92-.09,1.81-.26,2.68l7.56,7.56c1.5-3.1,2.36-6.56,2.36-10.24,0-13.11-10.63-23.74-23.74-23.74s-23.74,10.63-23.74,23.74,10.63,23.74,23.74,23.74c4.29,0,8.3-1.16,11.77-3.15l-7.27-7.27Z"></path>
  <path class="cls-1" d="m68.85,56.42h-23.17l9.72,9.72c-1.45,1.45-3.22,2.56-5.2,3.25-.28.1-.57.19-.86.27-.14.04-.28.08-.43.11-.28.07-.56.13-.85.18-.17.03-.34.05-.51.08-.26.04-.53.07-.79.09-.2.02-.4.02-.6.03-.25,0-.5.02-.75.01-.2,0-.39-.02-.59-.03-.27-.02-.54-.03-.81-.07-.15-.02-.29-.04-.43-.07-.32-.05-.64-.1-.96-.18-.08-.02-.17-.04-.25-.06-.37-.09-.75-.2-1.12-.33-.04-.01-.08-.03-.11-.04-.4-.14-.8-.3-1.2-.48-.03-.01-.06-.03-.09-.04-.39-.18-.76-.38-1.12-.59-.05-.03-.11-.07-.16-.1-.33-.2-.64-.41-.95-.63-.08-.06-.16-.12-.24-.18-.27-.21-.54-.43-.79-.65-.09-.08-.17-.16-.26-.23-.24-.23-.48-.46-.7-.7-.08-.08-.15-.17-.23-.25-.23-.26-.44-.52-.65-.79-.06-.07-.11-.15-.16-.22-.22-.3-.42-.6-.61-.92-.03-.05-.06-.1-.09-.15-.2-.34-.39-.69-.56-1.04-.02-.03-.03-.06-.04-.09-.18-.37-.33-.75-.48-1.13,0-.03-.02-.05-.03-.08-.14-.38-.26-.76-.36-1.15-.01-.05-.02-.1-.04-.14-.09-.36-.17-.73-.23-1.1-.02-.09-.03-.18-.04-.27-.05-.33-.09-.66-.11-1-.01-.14-.02-.28-.02-.42-.01-.3-.02-.6-.01-.91,0-.16.01-.32.02-.47.02-.3.04-.6.08-.9.02-.13.04-.26.06-.39.05-.33.11-.66.18-.98.02-.09.05-.18.07-.28.09-.36.19-.71.31-1.07.02-.07.05-.14.07-.2.13-.36.28-.73.44-1.09.04-.08.07-.15.11-.23.16-.33.33-.65.51-.96.07-.11.14-.23.21-.34.16-.26.32-.5.5-.75.11-.15.22-.3.33-.44.15-.19.3-.38.46-.56.14-.17.29-.33.45-.49.15-.15.3-.3.45-.45.17-.16.34-.32.52-.48.16-.13.32-.27.48-.39.18-.14.37-.28.56-.42.18-.13.36-.25.54-.36.18-.12.37-.23.56-.34.2-.11.4-.22.61-.33.18-.09.37-.18.56-.27.21-.1.43-.19.65-.27.2-.08.4-.15.6-.22.21-.07.42-.14.63-.2.23-.07.47-.13.71-.18.18-.04.36-.08.54-.11.29-.05.59-.1.89-.14.13-.02.26-.03.39-.04.36-.03.72-.05,1.09-.05.08,0,.17,0,.25,0,.4,0,.79.02,1.17.06.07,0,.14.01.21.02.37.04.74.1,1.1.17.09.02.18.03.28.05.33.07.65.16.97.25.13.04.25.07.38.11.29.09.57.2.85.31.15.06.29.11.44.18.28.12.55.25.82.39.13.07.25.13.38.2.29.16.58.34.86.52.08.05.15.1.23.15.31.21.61.44.9.68.04.03.07.06.11.09.31.26.61.53.9.81.15.14.27.3.41.45h11.1c-1.15-2.61-2.76-5.02-4.82-7.08h0c-.05-.06-.11-.11-.17-.16-.41-.41-.84-.8-1.29-1.17-.14-.12-.28-.23-.42-.35-.42-.34-.85-.66-1.3-.97-.21-.14-.42-.28-.63-.42-.4-.26-.8-.5-1.22-.74-.29-.16-.59-.32-.89-.47-.24-.12-.46-.26-.71-.37-.14-.06-.28-.11-.42-.17-.33-.15-.66-.27-1-.4-.39-.15-.79-.3-1.18-.43-.29-.1-.59-.17-.89-.26-.46-.13-.93-.26-1.39-.36-.23-.05-.47-.09-.7-.13-.54-.1-1.09-.19-1.63-.25-.19-.02-.38-.03-.57-.05-.59-.05-1.18-.08-1.77-.09-.07,0-.14-.01-.22-.01-.13,0-.25.02-.38.02-.56,0-1.11.03-1.66.08-.27.02-.54.06-.8.09-.46.06-.91.12-1.37.21-.34.06-.68.14-1.02.21-.37.09-.74.18-1.1.28-.38.11-.76.23-1.14.36-.32.11-.63.22-.94.35-.39.15-.77.31-1.15.48-.3.14-.6.28-.9.44-.36.18-.71.37-1.05.57-.32.18-.62.37-.93.57-.31.2-.61.4-.91.61-.33.23-.64.47-.96.72-.26.21-.52.42-.78.64-.31.27-.62.55-.92.84-.24.23-.48.47-.71.71-.28.29-.54.58-.8.89-.25.29-.48.58-.72.88-.21.27-.42.55-.62.84-.27.37-.52.76-.76,1.15-.14.23-.29.46-.42.69-.28.48-.53.97-.78,1.47-.06.12-.12.22-.18.34-.03.07-.05.13-.08.2-.24.54-.46,1.09-.67,1.64-.07.18-.14.36-.2.54-.17.52-.32,1.05-.46,1.58-.06.23-.13.46-.18.7-.1.46-.18.94-.26,1.41-.05.31-.1.61-.14.92-.05.42-.08.84-.11,1.26-.02.36-.05.72-.05,1.07,0,.15-.02.3-.02.45,0,.27.03.53.04.8.01.33.02.67.05,1,.04.48.09.94.16,1.41.04.25.07.5.11.75.09.53.2,1.06.33,1.58.04.18.09.35.14.53.15.56.33,1.12.52,1.66.05.14.1.28.16.43.21.55.44,1.1.68,1.63.07.15.14.29.21.44.25.51.51,1,.8,1.48.1.18.21.35.32.53.27.44.56.87.86,1.28.15.21.3.41.46.62.29.37.59.74.9,1.09.19.22.39.43.59.65.31.33.63.65.96.96.21.2.43.4.65.59.36.31.73.62,1.11.91.21.16.41.32.62.47.44.32.89.61,1.35.9.17.11.34.21.51.31.53.31,1.08.59,1.63.86.09.04.16.09.25.13.05.02.1.04.15.06.57.26,1.16.49,1.76.71.15.05.3.11.45.16.53.18,1.08.33,1.63.47.22.06.45.12.67.17.46.1.92.18,1.39.26.32.05.64.11.96.15.38.05.77.07,1.16.1.4.03.8.05,1.19.06.13,0,.26.02.4.02.24,0,.47-.03.7-.04.4-.01.79-.03,1.18-.06.41-.03.81-.08,1.21-.13.33-.04.66-.09.98-.15.45-.08.89-.17,1.33-.28.27-.07.55-.13.82-.21.46-.13.92-.27,1.36-.43.13-.04.26-.07.38-.12v-.02c3.19-1.17,6.06-3,8.42-5.35l6.82,6.82v-23.21h-.04Z"></path>
  <path class="cls-1" d="m95.15,34.27c3.41,0,7.77.55,11.11,4.02,2.59,2.66,3.89,6.61,3.89,10.22,0,3.88-1.36,7.29-3.61,9.47-1.77,1.7-4.16,2.73-6.27,3.13l14.24,18.61h-14.65l-11.31-17.45v17.45h-11.79v-45.46h18.4Zm-6.61,20.38h2.25c1.77,0,4.29-.48,5.72-1.84.89-.89,1.5-2.39,1.5-3.82s-.55-2.86-1.57-3.82c-1.09-1.09-3.07-1.77-5.66-1.77h-2.25v11.24Z"></path>
  <path class="cls-1" d="m157.98,74c-4.63,4.43-11.18,6.75-17.92,6.75s-13.29-2.32-17.92-6.75c-4.84-4.63-7.16-10.97-7.16-16.97s2.32-12.47,7.16-17.04c4.63-4.43,11.18-6.75,17.92-6.75s13.29,2.32,17.92,6.75c4.84,4.57,7.16,10.97,7.16,17.04s-2.32,12.34-7.16,16.97Zm-27.12-25.69c-2.45,2.39-3.61,5.72-3.61,8.93,0,4.02,1.91,6.81,3.61,8.45,2.18,2.11,5.25,3.61,9.2,3.61s7.02-1.43,9.13-3.54c2.11-2.11,3.68-5.25,3.68-8.72s-1.57-6.68-3.68-8.72c-2.52-2.39-6-3.61-9.13-3.61s-6.75,1.16-9.2,3.61Z"></path>
  <path class="cls-1" d="m179.35,34.27l7.9,29.37,9.61-29.37h9.4l8.93,29.37,8.59-29.37h12.34l-14.52,45.46h-12.06l-8.25-26.31-8.72,26.31h-11.99l-13.56-45.46h12.34Z"></path>
  <path class="cls-1" d="m262.41,44.28v35.44h-11.79v-35.44h-9.68v-10.02h31.14v10.02h-9.68Z"></path>
  <path class="cls-1" d="m307.09,44.28h-16.31v7.56h14.04v10.02h-14.04v7.84h16.31v10.02h-28.1v-45.46h28.1v10.02Z"></path>
</svg>
