<?xml version="1.0" encoding="UTF-8"?>
<svg id="Laag_1" data-name="Laag 1" xmlns="http://www.w3.org/2000/svg" viewBox="0 0 541.86 165">
  <defs>
    <style>
      .cls-1 {
        fill: #1d1d1b;
      }

      .cls-1, .cls-2 {
        stroke-width: 0px;
      }

      .cls-2 {
        fill: #c68b66;
      }
    </style>
  </defs>
  <g>
    <path class="cls-1" d="M6.68,1.57c.03,34.83.06,69.67.09,104.5-2.26,0-4.51-.01-6.77-.02V0c2.23.53,4.45,1.05,6.68,1.56Z"/>
    <path class="cls-1" d="M26.09,106.12c-.1-33.44-.2-66.88-.31-100.32,2.67.57,5.33,1.13,8,1.68,3.45,19.3,12.51,71,13.59,78.62h.15c-.44-12.93-.61-26.47-.69-42.14-.06-11.3-.11-22.6-.17-33.91,2.11.41,4.22.81,6.34,1.21.18,31.64.35,63.28.53,94.92-2.6,0-5.21-.01-7.81-.02-3.49-17.74-12.79-72.66-14-81.06-.03,0-.06-.01-.1-.02.46,12.01.69,27.84.75,45.71.04,11.78.09,23.56.13,35.34-2.14,0-4.28-.01-6.42-.02h.01Z"/>
    <path class="cls-1" d="M98.9,18.99c3.84.57,7.69,1.12,11.53,1.65,13.74,1.91,15.58,13.2,15.69,26.49.09,11.02.19,22.03.28,33.05.11,12.83-1.29,26.11-15.68,26.14-3.71,0-7.41-.01-11.12-.02-.23-29.1-.47-58.21-.7-87.31h0ZM106.31,98.33c1.28.02,2.56.04,3.84.06,7.7.09,9.46-5.67,9.37-16.72-.1-12.08-.2-24.16-.3-36.24-.08-9.77-1.45-15.89-9.58-16.92-1.3-.16-2.6-.33-3.89-.5.19,23.44.38,46.88.58,70.33h-.02Z"/>
    <path class="cls-1" d="M165.72,67.9c-4.76-.21-9.53-.44-14.29-.68.08,10.41.17,20.83.25,31.24,5.4.06,10.8.12,16.2.17-.29,2.58-.57,5.17-.86,7.76-7.35,0-14.7-.02-22.05-.03-.22-27.19-.45-54.38-.67-81.57,7.3.79,14.61,1.51,21.92,2.17.02,2.61.04,5.22.06,7.83-5.04-.41-10.09-.84-15.13-1.31.07,8.61.14,17.22.21,25.83,4.76.29,9.53.56,14.3.81.02,2.59.04,5.19.06,7.78Z"/>
    <path class="cls-1" d="M183.05,106.42c-.18-26.04-.36-52.07-.54-78.11,2.7.2,5.41.4,8.12.58,3.55,14.7,12.66,55.32,13.72,61.51h.15c-.43-10.32-.59-21.12-.66-33.63-.05-9.02-.1-18.04-.15-27.07,2.14.12,4.28.24,6.42.35.13,25.46.26,50.92.39,76.38h-7.81c-3.46-14.3-12.87-57.17-14.12-63.53h-.1c.49,9.38.73,21.79.83,35.81.06,9.24.12,18.48.18,27.72h-6.43Z"/>
    <path class="cls-1" d="M263.32,71.51c0,11.65.02,23.3.02,34.95h-6.77c-.03-24.97-.06-49.94-.1-74.91,3.73.05,7.46.07,11.19.08,9.63.02,14.35,4.79,14.34,17.18v3.42c-.01,10.17-3.06,14.36-6.52,15.79,4.05,1.75,5.93,5.32,5.92,15.34,0,6.4-.12,18.37.6,23.1h-6.6c-.8-4.66-.66-17.24-.66-22.49,0-9.7-1.16-12.45-7.48-12.46h-3.95.01ZM263.32,64.75c1.39,0,2.78,0,4.17.01,6.07,0,7.66-4.12,7.66-12.11v-3.33c0-6.84-1.59-10.91-8-10.93-1.28,0-2.57,0-3.85-.02,0,8.79.01,17.58.02,26.37h0Z"/>
    <path class="cls-1" d="M306.49,31.1c-.06,19.52-.12,39.05-.18,58.57-.02,6.22,1.81,10.45,6.59,10.44,4.87-.01,6.55-4.05,6.58-10.49.08-19.67.17-39.33.25-59,2.29-.09,4.58-.2,6.86-.3-.09,19.65-.19,39.29-.28,58.94-.06,11.78-4.5,18.21-13.57,18.2-8.81,0-13.23-5.85-13.2-17.79.05-19.46.1-38.92.15-58.39,2.27-.06,4.54-.12,6.81-.19h0Z"/>
    <path class="cls-1" d="M348.58,84.64c0,1.5-.02,2.99-.03,4.49-.05,7.28,2,11.17,6.46,11.14,4.56-.02,6.39-4.1,6.45-12.68.06-9.16-1.55-12.7-8.22-18.84-6.78-6.26-10.22-10-10.16-21.35.06-9.76,2.54-19.22,12.58-19.9,9.52-.66,11.97,6.91,11.9,16.92,0,1.22-.02,2.44-.03,3.65-2.25.14-4.5.27-6.75.4,0-1.14.02-2.27.02-3.41.05-6.5-.96-10.62-5.33-10.32-4.38.29-5.55,5.01-5.58,11.08-.05,7.2,1.12,9.86,6.94,15.01,8.8,7.8,11.57,12.35,11.47,25.44-.08,11.1-2.71,21.21-13.44,21.18-10.27-.02-13.13-8.15-13.07-18.28,0-1.47.02-2.95.03-4.42,2.26-.04,4.52-.08,6.78-.13l-.02.02Z"/>
    <path class="cls-1" d="M391.56,33.4c-3.44.32-6.88.63-10.32.92.02-2.63.04-5.25.06-7.88,9.13-.86,18.26-1.83,27.37-2.9-.02,2.72-.05,5.44-.07,8.16-3.42.36-6.83.71-10.25,1.05-.2,24.54-.41,49.08-.61,73.62h-6.77c.2-24.33.4-48.65.59-72.98h0Z"/>
    <path class="cls-1" d="M432.75,106.31c-2.72-28.65-5.44-56.89-8.16-84.76,2.41-.32,4.82-.64,7.23-.98,1.78,20.52,4.66,56.58,5.08,70.25h.14c1.01-13.86,5.62-50.97,7.91-72.14,2.3-.34,4.6-.69,6.9-1.05,2,20.72,6,55.93,6.68,72.12h.24c.83-15.32,4.49-51.7,6.59-74.3,2.3-.38,4.59-.78,6.89-1.18-3.41,31.21-6.83,61.85-10.26,91.97-2.44,0-4.89.01-7.33.02-1.92-20.92-5.56-55.62-6.56-70.01-.05,0-.09.01-.14.02-1.43,16.09-5.53,49.95-7.92,70.02-2.43,0-4.86,0-7.29.01h0Z"/>
    <path class="cls-1" d="M489.83,75.81c-1.07,10.19-2.13,20.31-3.2,30.38-2.28,0-4.57.01-6.85.02,3.68-31.13,7.33-62.88,10.96-95.3,3.19-.61,6.38-1.23,9.57-1.86,3.45,31.65,6.93,64,10.44,97.08-2.36,0-4.73.01-7.09.02-1.05-10.41-2.09-20.75-3.13-31.02-3.56.23-7.13.46-10.69.68h-.01ZM499.69,65.69c-2.11-21.18-3.62-37.28-4.18-46.28-.09.02-.18.03-.28.05-.27,7.49-2.64,29.44-4.45,46.96,2.97-.24,5.93-.48,8.9-.73h.01Z"/>
    <path class="cls-1" d="M525.05,13.92c-3.4.68-6.79,1.34-10.19,1.99.01-3.29.02-6.57.03-9.86,9.01-1.91,18-3.93,26.97-6.05v10.45c-3.37.72-6.74,1.42-10.11,2.12-.04,31.17-.08,62.34-.12,93.51-2.26,0-4.51.01-6.77.02.06-30.72.13-61.45.19-92.17h0Z"/>
  </g>
  <g>
    <path class="cls-2" d="M154.54,154.9v9.82h-2.93v-22.29h8.71c4.58,0,7.02,2.48,7.02,5.96,0,2.9-1.66,4.65-3.8,5.24,1.82.49,3.4,1.85,3.4,5.72v.96c0,1.53-.07,3.48.3,4.41h-2.87c-.4-.96-.38-2.7-.38-4.79v-.47c0-3.17-.9-4.55-4.89-4.55h-4.56ZM154.54,152.41h4.85c3.41,0,4.91-1.28,4.91-3.79,0-2.37-1.55-3.71-4.57-3.71h-5.18v7.5h-.01Z"/>
    <path class="cls-2" d="M189.58,154.3h-11.09v7.89h12.17l-.38,2.53h-14.69v-22.29h14.52v2.53h-11.62v6.8h11.09v2.53h0Z"/>
    <path class="cls-2" d="M199.19,158.51c.61,2.67,2.43,4.12,5.66,4.12,3.48,0,4.85-1.63,4.85-3.74,0-2.23-1.1-3.49-5.57-4.57-5.25-1.28-7.07-3.08-7.07-6.21,0-3.31,2.44-6.01,7.42-6.01,5.31,0,7.49,3.07,7.79,6h-3.01c-.4-1.98-1.64-3.61-4.89-3.61-2.71,0-4.24,1.22-4.24,3.35s1.26,2.92,5.16,3.86c6.36,1.55,7.48,4.02,7.48,6.88,0,3.59-2.66,6.41-8.11,6.41s-8.02-3.06-8.48-6.48h3.01,0Z"/>
    <path class="cls-2" d="M225.14,144.96h-7.2v-2.53h17.39v2.53h-7.21v19.76h-2.98v-19.76h0Z"/>
    <path class="cls-2" d="M242.62,158.03l-2.4,6.69h-2.94l7.94-22.29h3.64l8.28,22.29h-3.15l-2.47-6.69h-8.9ZM250.76,155.5c-2.12-5.86-3.29-8.97-3.77-10.67h-.03c-.54,1.89-1.85,5.66-3.56,10.67h7.37-.01Z"/>
    <path class="cls-2" d="M265.83,142.43v13.41c0,5.27,2.89,6.69,5.74,6.69,3.34,0,5.7-1.54,5.7-6.69v-13.41h2.97v13.26c0,7.23-4,9.31-8.74,9.31s-8.67-2.25-8.67-9.1v-13.47h3Z"/>
    <path class="cls-2" d="M292.07,154.9v9.82h-2.93v-22.29h8.71c4.58,0,7.02,2.48,7.02,5.96,0,2.9-1.66,4.65-3.8,5.24,1.82.49,3.4,1.85,3.4,5.72v.96c0,1.53-.07,3.48.3,4.41h-2.87c-.4-.96-.38-2.7-.38-4.79v-.47c0-3.17-.9-4.55-4.89-4.55h-4.56,0ZM292.07,152.41h4.85c3.41,0,4.91-1.28,4.91-3.79,0-2.37-1.55-3.71-4.57-3.71h-5.18v7.5h-.01Z"/>
    <path class="cls-2" d="M316.47,158.03l-2.4,6.69h-2.94l7.94-22.29h3.64l8.28,22.29h-3.15l-2.47-6.69h-8.9ZM324.61,155.5c-2.12-5.86-3.29-8.97-3.77-10.67h-.03c-.54,1.89-1.85,5.66-3.56,10.67h7.37-.01Z"/>
    <path class="cls-2" d="M337.87,164.72v-22.29h3.91c3.2,5.21,10.15,16.3,11.4,18.72h.04c-.22-2.86-.2-6.37-.2-10.02v-8.7h2.79v22.29h-3.67c-2.95-4.84-10.2-16.77-11.6-19.26h-.04c.16,2.54.16,6.32.16,10.34v8.93h-2.81.02Z"/>
    <path class="cls-2" d="M369.83,144.96h-7.2v-2.53h17.39v2.53h-7.21v19.76h-2.98v-19.76h0Z"/>
  </g>
  <rect class="cls-2" y="124.22" width="531.62" height="2.74"/>
</svg>