<?xml version="1.0" encoding="UTF-8"?><svg xmlns="http://www.w3.org/2000/svg" viewBox="0 0 140.22 106.45"><defs><style>.d{fill:#fff;stroke:#fff;stroke-miterlimit:10;}</style></defs><g id="a"/><g id="b"><g id="c"><g><g><path class="d" d="M16.07,2.76V40.75h-2.83V2.76H.5V.5H28.8V2.76h-12.74Z"/><path class="d" d="M46.79,.5V40.75h-2.83V.5h2.83Z"/><path class="d" d="M65.1,.5h3.11l25.85,35.8V.5h2.83V40.75h-2.83L67.93,4.6V40.75h-2.83V.5Z"/><path class="d" d="M139.72,.5V2.76h-22.33V19.49h22.33v2.26h-22.33v16.73h22.33v2.26h-25.16V.5h25.16Z"/></g><line class="d" x1=".17" y1="50.17" x2="139.83" y2="50.17"/><g><path class="d" d="M6.26,70.19h-.76v-3.26c0-.45-.07-.78-.22-.98-.15-.2-.37-.3-.68-.3-.47,0-.97,.29-1.5,.87v3.68h-.76v-6.89h.76v2.55c.55-.58,1.12-.87,1.73-.87,.95,0,1.43,.58,1.43,1.73v3.48Z"/><path class="d" d="M12.38,70.19h-.76c-.06-.21-.09-.48-.09-.82-.43,.63-1.02,.95-1.77,.95-.38,0-.71-.13-1-.4-.29-.27-.43-.61-.43-1.04,0-.25,.05-.47,.15-.66s.25-.35,.44-.49c.2-.13,.43-.24,.71-.31,.28-.08,.61-.13,1-.16l.85-.07v-.24c0-.87-.41-1.31-1.22-1.31-.19,0-.44,.04-.73,.12-.29,.08-.55,.18-.76,.29l-.2-.55c.69-.35,1.34-.53,1.93-.53,1.16,0,1.74,.61,1.74,1.84v2.19c0,.44,.04,.84,.13,1.18Zm-.89-1.51v-.92c-.69,.06-1.16,.12-1.41,.17-.26,.05-.48,.15-.66,.3s-.28,.34-.28,.6c0,.23,.08,.41,.24,.55s.36,.21,.61,.21c.27,0,.54-.08,.81-.24,.27-.16,.5-.38,.7-.67Z"/><path class="d" d="M16.99,70.19h-.76v-4.43h-1.5v-.66h2.26v5.09Zm-.37-7.01c.14,0,.27,.05,.37,.15,.1,.1,.15,.22,.15,.37s-.05,.28-.15,.38-.22,.15-.37,.15c-.13,0-.25-.05-.35-.16-.1-.11-.15-.23-.15-.37s.05-.26,.15-.37,.22-.16,.35-.16Z"/><path class="d" d="M24.34,65.24l-.31,.73c-.34-.15-.62-.22-.87-.22-.22,0-.44,.06-.66,.19-.21,.13-.41,.31-.59,.55-.18,.24-.27,.37-.27,.4v3.29h-.76v-5.09h.76v1.03c.41-.77,.93-1.15,1.58-1.15,.38,0,.76,.09,1.12,.26Z"/><path class="d" d="M34.64,72.06h-.75v-8.76h.75v8.76Z"/><path class="d" d="M47.73,65.83c-.43-.14-.83-.21-1.21-.21-.41,0-.74,.07-.98,.21-.24,.14-.36,.32-.36,.55,0,.15,.06,.27,.17,.38,.11,.11,.33,.21,.66,.31l.73,.21c.34,.09,.61,.21,.82,.34,.21,.13,.37,.29,.48,.48,.11,.19,.16,.4,.16,.65,0,.49-.2,.87-.61,1.15-.41,.28-.92,.42-1.55,.42s-1.14-.09-1.55-.28l.15-.66c.43,.2,.88,.3,1.37,.3,.42,0,.77-.08,1.03-.24,.27-.16,.4-.37,.4-.63,0-.18-.07-.33-.2-.47-.13-.14-.44-.28-.93-.43-.39-.12-.68-.21-.87-.27-.19-.06-.36-.15-.52-.27s-.28-.26-.36-.42-.12-.34-.12-.55c0-.44,.19-.79,.58-1.04s.89-.39,1.53-.39c.41,0,.87,.07,1.37,.21l-.17,.64Z"/><path class="d" d="M54.31,69.96c-.51,.23-1.01,.35-1.51,.35-.91,0-1.36-.48-1.36-1.44v-3.11h-.98v-.66h.98v-1.39h.74v1.39h1.73v.66h-1.73v2.91c0,.31,.07,.55,.21,.72,.14,.17,.32,.26,.56,.26,.42,0,.83-.09,1.24-.28l.13,.59Z"/><path class="d" d="M60.49,65.1l-1.93,5.09c-.28,.75-.56,1.27-.83,1.57s-.59,.44-.94,.44c-.31,0-.62-.06-.93-.17l.13-.61c.25,.08,.47,.12,.66,.12,.27,0,.5-.11,.67-.32s.35-.56,.53-1.04l-1.91-5.08h.83l1.44,4.06,1.44-4.06h.83Z"/><path class="d" d="M65.89,70.19h-2.08v-6.23h-1.33v-.66h2.09v6.23h1.32v.66Z"/><path class="d" d="M71,70.19h-.76v-4.43h-1.5v-.66h2.26v5.09Zm-.37-7.01c.14,0,.26,.05,.37,.15,.1,.1,.15,.22,.15,.37s-.05,.28-.15,.38-.22,.15-.37,.15c-.13,0-.25-.05-.35-.16-.1-.11-.15-.23-.15-.37s.05-.26,.15-.37,.22-.16,.35-.16Z"/><path class="d" d="M78.27,70.19h-.76v-3.26c0-.45-.07-.78-.22-.98-.14-.2-.37-.3-.68-.3-.46,0-.96,.29-1.5,.87v3.68h-.76v-5.09h.76v.75c.55-.58,1.12-.87,1.73-.87,.95,0,1.43,.58,1.43,1.73v3.48Z"/><path class="d" d="M81.76,68.27c-.48,.23-.71,.43-.71,.61,0,.09,.05,.17,.16,.24s.26,.1,.45,.1l1.71-.05c.41,0,.72,.1,.95,.3s.34,.48,.34,.84c0,.58-.26,1.04-.77,1.38-.51,.34-1.12,.51-1.8,.51-.56,0-1.02-.12-1.38-.35-.36-.24-.54-.54-.54-.92,0-.41,.28-.75,.83-1.03-.46-.21-.69-.48-.69-.79,0-.36,.3-.69,.89-1-.27-.17-.48-.38-.63-.64s-.22-.54-.22-.83c0-.48,.16-.87,.49-1.18,.33-.31,.73-.46,1.22-.46,.35,0,.67,.07,.95,.22l1.51-.23v.74h-.97c.15,.26,.22,.56,.22,.91,0,.46-.16,.85-.48,1.17s-.73,.48-1.23,.48c-.1,0-.2,0-.3,0Zm.33,3.34c.5,0,.93-.11,1.28-.33,.35-.22,.53-.5,.53-.83s-.25-.51-.75-.51c-.17,0-.45,0-.86,.03-.26,.01-.46,.02-.61,.02-.07,0-.18,.06-.33,.18s-.27,.24-.35,.35c-.08,.12-.12,.24-.12,.37,0,.2,.11,.37,.33,.51,.22,.14,.51,.21,.87,.21Zm-.03-3.92c.28,0,.51-.1,.69-.29,.18-.19,.27-.45,.27-.76,0-.33-.09-.59-.26-.77-.17-.19-.4-.28-.69-.28-.27,0-.5,.1-.68,.29-.18,.19-.28,.45-.28,.76s.09,.56,.28,.75c.18,.2,.41,.29,.68,.29Z"/><path class="d" d="M94.65,72.06h-.75v-8.76h.75v8.76Z"/><path class="d" d="M108.25,70.02c-.44,.2-.93,.3-1.46,.3-.8,0-1.44-.24-1.92-.73-.48-.49-.71-1.13-.71-1.94s.24-1.45,.72-1.94c.48-.49,1.11-.73,1.89-.73,.51,0,1,.09,1.46,.27l-.2,.63c-.46-.16-.88-.24-1.25-.24-.56,0-1,.18-1.33,.54s-.49,.85-.49,1.47c0,.57,.17,1.04,.51,1.43,.34,.39,.78,.58,1.32,.58,.43,0,.87-.08,1.33-.25l.13,.61Z"/><path class="d" d="M112.3,64.98c.7,0,1.26,.24,1.67,.73,.41,.49,.62,1.13,.62,1.93s-.21,1.45-.62,1.94c-.41,.49-.97,.74-1.67,.74s-1.26-.25-1.67-.74c-.41-.49-.62-1.14-.62-1.95s.21-1.44,.62-1.93c.41-.49,.97-.73,1.67-.73Zm0,4.68c.46,0,.83-.2,1.09-.59,.27-.39,.4-.86,.4-1.42,0-.59-.13-1.07-.39-1.45s-.63-.57-1.1-.57-.84,.19-1.1,.56c-.26,.37-.39,.86-.39,1.45s.13,1.04,.39,1.43c.26,.39,.63,.58,1.09,.58Z"/><path class="d" d="M119.9,70.19h-2.08v-6.23h-1.33v-.66h2.09v6.23h1.32v.66Z"/><path class="d" d="M124.3,64.98c.7,0,1.26,.24,1.67,.73,.41,.49,.62,1.13,.62,1.93s-.21,1.45-.62,1.94c-.41,.49-.97,.74-1.67,.74s-1.26-.25-1.67-.74c-.41-.49-.62-1.14-.62-1.95s.21-1.44,.62-1.93c.41-.49,.97-.73,1.67-.73Zm0,4.68c.46,0,.83-.2,1.09-.59,.27-.39,.4-.86,.4-1.42,0-.59-.13-1.07-.39-1.45s-.63-.57-1.1-.57-.84,.19-1.1,.56c-.26,.37-.39,.86-.39,1.45s.13,1.04,.39,1.43c.26,.39,.63,.58,1.09,.58Z"/><path class="d" d="M132.27,70.19h-.76v-.75c-.55,.58-1.12,.87-1.73,.87-.95,0-1.43-.58-1.43-1.73v-3.48h.76v3.26c0,.43,.07,.76,.21,.97,.14,.21,.37,.32,.69,.32,.47,0,.97-.29,1.5-.87v-3.68h.76v5.09Z"/><path class="d" d="M138.35,65.24l-.31,.73c-.34-.15-.62-.22-.87-.22-.22,0-.45,.06-.66,.19-.21,.13-.41,.31-.59,.55-.18,.24-.27,.37-.27,.4v3.29h-.76v-5.09h.76v1.03c.41-.77,.93-1.15,1.58-1.15,.38,0,.76,.09,1.12,.26Z"/></g><path class="d" d="M95.75,92.21c.07-.14,.11-.27,.1-.37-.05-.52-.81-.72-1.25-.83-.99-.24-2.26-.3-3.27-.07-.75,.17-1.46-.03-2.22-.04-.55,0-1.01-.1-1.53-.22-.66-.14-1.32-.09-2-.1-.85-.01-1.31,.14-1.98-.43-.55-.46-.95-1.07-1.24-1.71-.23-.51-.49-1.01-.76-1.5-.15-.27-.36-.53-.46-.82-.1-.29-.19-.59-.31-.88-.3-.73-.73-1.26-.92-2.05-.22-.92-.37-1.85-1.08-2.56-1.45-1.47-3.64-1.19-5.57-1.56,.16,.5,.43,.97,.49,1.5,.09,.75-.1,1.61,.08,2.34,.12,.49,.53,1,.84,1.4,.68,.86,1.71,1.27,2.82,1.29,.45,0,.91-.17,1.35-.14,1.22,.07,2.08,1.54,2.6,2.42,.22,.38,.45,.77,.66,1.15,.27,.5,.62,.92,.96,1.36,.33,.42-.15,.6-.56,.65-.54,.07-1.06,.13-1.6,.23-.55,.11-1.11,.2-1.67,.19-.81-.02-1.66,.22-2.47,.28-.64,.05-1.29,.08-1.93,.1-.1-.07-.2-.14-.3-.21-.87-.59-1.75-1.18-2.66-1.72-.38-.23-.65-.64-.95-.96-.45-.49-.89-.98-1.29-1.51-.28-.37-.77-.65-.94-1.08-.17-.41-.13-.99-.2-1.43-.18-1.16-.38-2.25-1.23-3.14-.69-.73-1.69-.91-2.63-1.21-.52-.16-.99-.33-1.56-.31-.31,0-.69,.16-.97,.06,.71,.38,1.08,.65,1.25,1.45,.18,.9,.09,1.79,.32,2.69,.27,1.07,.62,1.77,1.57,2.42,1.08,.74,1.99,.49,3.21,.73,1.04,.2,1.65,1.31,2.35,1.97,.23,.22,.41,.43,.69,.59,.29,.16,.6,.36,.85,.58,.16,.14,.24,.34,.4,.49,.21,.2,.71,.31,.34,.53-.35,.21-.97,.09-1.35,.04-.6-.07-1.22-.02-1.82-.11-.4-.06-.8-.2-1.2-.27-.3-.05-.6-.1-.89-.16-.39-.07-.79-.16-1.18-.23-.72-.12-1.48-.27-2.16-.46-1.89-.54-3.87-1.21-5.58-2.12-.3-.16-.54-.36-.84-.52-1.77-.95-.96-3.59-2.98-4.52-1.58-.73-3.7-.2-5.39-.33,.33,.66,1.09,1.22,1.39,1.95,.35,.87,.83,1.57,1.63,2.17,.76,.57,1.64,1.02,2.6,1.22,.84,.17,1.63,.4,2.51,.4,.94,0,1.55,.49,2.42,.83,1.01,.4,2.01,.83,3.06,1.16,.64,.2,1.28,.39,1.93,.56,.26,.07,.57,.04,.82,.12,.19,.06,.75,.08,.82,.28,.05,.13-.1,.21-.2,.28-.09,.07-.15,.13-.23,.21-.17,.18-.39,.32-.6,.45-.6,.37-1.32,.81-1.98,1.07-.53,.2-.85,.05-1.39,.02-.75-.04-1.58-.06-2.33-.04-.66,.02-1.29,.18-1.88,.48-.61,.3-.99,.7-1.38,1.21-.42,.54-.68,1.11-1.19,1.59-.6,.57-1.27,1.17-1.66,1.89,.26-.49,2.63-.27,3.15-.25,1.19,.05,2.87-.37,3.88-.99,1.07-.67,1.16-2.11,2.09-2.88,.62-.52,1.39-.85,2.09-1.26,.57-.33,1.16-.63,1.71-.99,.4-.26,.86-.42,1.34-.49,.49-.08,.91,.1,1.37,.15,.52,.06,1.04,.1,1.56,.18,.48,.07,.93,.04,1.41,.04,.46,0,.92-.02,1.38-.02,.65,0,1.3-.13,1.95-.15,.27,0,.75-.07,.99,.06,.4,.22,0,.47-.27,.74-.27,.27-.54,.55-.79,.84-.51,.58-1.01,1.57-1.62,2.03-.72,.53-1.77,.35-2.57,.7-.62,.27-1.33,.74-1.85,1.13-1.29,.98-1.78,2.61-2.17,4.01-.16,.58,0,.99,.01,1.56,.02,.54,0,1.15-.03,1.68,.47-.51,1.21-.76,1.81-1.14,.96-.61,1.82-1.34,2.78-1.94,1.17-.73,1.53-1.7,1.92-2.9,.19-.56,0-.96,.06-1.54,.01-.17,.1-.26,.18-.4,.12-.2,.15-.46,.32-.64,.17-.18,.28-.36,.41-.57,.27-.46,.61-.88,.95-1.29,.37-.44,.75-.86,1.17-1.26,.23-.22,.46-.44,.71-.64,.37-.32,.84-.35,1.29-.53,.34-.14,.68-.14,1.04-.16,.44-.02,.9-.04,1.33-.16,.51-.14,.99-.13,1.5-.07,.59,.07,1.22-.1,1.81-.17,.42-.05,.82-.07,1.24-.04,.35,.02,.73-.01,1.06,.05,.73,.14,1.54,.13,2.29,.15,.81,.02,1.57,.12,2.38,.07,.6-.04,1.22-.04,1.79,.13,.47,.14,.85,.89,1.29,.9,.28,0,.61-.36,.77-.69Z"/></g></g></g></svg>