<svg width="160" height="32" viewBox="0 0 160 32" fill="none" xmlns="http://www.w3.org/2000/svg">
<g clip-path="url(#clip0_95_2429)">
<path d="M11.2616 27.1956L3.42889 7.89038H0L9.85713 31.4398H12.6062L22.9116 7.89038H19.4379L11.2616 27.1956Z" fill="#2C2C2C"/>
<path d="M41.9573 8.73824C40.1831 7.73493 38.2333 7.24652 35.996 7.24652C31.4764 7.24652 28.0102 9.21529 25.9708 12.937C24.951 14.7543 24.458 16.9162 24.458 19.5437V19.9867C24.458 27.5097 28.7721 32.0037 35.996 32.0037C40.7172 32.0037 44.2246 30.0615 46.1444 26.3814C47.0782 24.5717 47.5339 22.4779 47.5339 19.9867V19.5437C47.5339 14.4969 45.6066 10.76 41.9573 8.73824ZM44.2918 19.5854V19.9451C44.2918 25.5863 41.1916 28.9559 35.996 28.9559C30.8003 28.9559 27.7786 25.5863 27.7786 19.9451V19.5854C27.7786 15.7539 29.1643 12.8954 31.7976 11.3203C32.9555 10.5858 34.3824 10.2148 36.0333 10.2148C39.1634 10.2148 41.7183 11.7671 43.2198 14.5802C43.9482 16.0605 44.2881 17.6507 44.2881 19.5892L44.2918 19.5854Z" fill="#2C2C2C"/>
<path d="M55.8447 0.223694H52.6025V31.44H55.8447V0.223694Z" fill="#2C2C2C"/>
<path d="M83.3766 12.4946L83.1077 7.89071H80.3623V31.4402H83.5223V20.2674C83.5223 13.8652 85.9576 11.1354 91.6612 11.1354H93.5774V7.84906H91.9376C87.6496 7.84906 84.8333 9.37107 83.3766 12.4946Z" fill="#2C2C2C"/>
<path d="M107.061 7.24677C102.769 7.24677 99.5272 8.69305 97.682 11.4304C96.7744 12.8312 96.2776 14.2927 96.1581 15.9018L96.1282 16.3069H99.3704L99.3965 15.9586C99.6841 12.2823 102.579 10.0863 107.14 10.0863C111.7 10.0863 113.695 11.5894 113.695 14.6826C113.695 15.9093 112.817 16.5908 110.763 16.9581L107.364 17.5184C104.413 17.9652 102.269 18.4422 100.599 19.0215C99.8783 19.2903 99.2284 19.6083 98.5486 20.021C96.6287 21.2704 95.5269 23.3338 95.5269 25.6774C95.5269 29.6339 98.4029 31.9964 103.225 31.9964C106.71 31.9964 109.859 30.6561 112.089 28.2255C112.776 27.5023 113.362 26.6997 113.84 25.8251L114.068 31.4323H116.858V15.0007C116.858 11.4607 115.159 7.2392 107.061 7.2392V7.24677ZM113.773 18.4763V19.8658C113.773 21.9444 112.746 24.2046 110.953 26.0598C109.575 27.4569 107.218 29.119 103.815 29.119C100.73 29.119 98.9632 27.7636 98.9632 25.4048C98.9632 24.0002 99.5608 22.8909 100.734 22.1109C102.153 21.1644 103.849 20.6798 107.991 20.04C110.445 19.6386 112.477 19.2524 113.773 18.4763Z" fill="#2C2C2C"/>
<path d="M153.269 14.857H147.327V9.31799H144.701V13.9257C144.701 14.4406 144.29 14.8608 143.778 14.8608H140.611V17.5224H146.553V22.6904H149.179V18.4576C149.179 17.9427 149.59 17.5224 150.102 17.5224H153.269V14.8608V14.857Z" fill="#2C2C2C"/>
<path d="M74.6214 28.2749C71.6669 28.2749 70.3222 27.7335 69.7918 26.1888C69.4631 25.3369 69.3025 24.0534 69.3025 22.274V11.8736C69.3174 11.317 69.7582 10.8703 70.311 10.8514H73.9341H73.9453V7.82248H67.1959V1.96919H67.1846V1.9389H64.1965V6.75102C64.1965 7.33786 63.7259 7.81491 63.1469 7.81491H59.5425V10.8438H59.5724H66.2994L66.2845 22.5882C66.2845 27.2981 67.2332 29.6303 69.5453 30.6337C70.6472 31.1713 72.1636 31.4325 74.1806 31.4325H76.6907V28.2673H74.6139L74.6214 28.2749Z" fill="#2C2C2C"/>
<path d="M146.942 0C139.741 0 133.884 7.38665 133.884 16C133.884 24.6133 139.741 32 146.942 32C154.143 32 160 24.6133 160 16C160 7.38665 154.14 0 146.942 0ZM157.542 16C157.542 23.239 152.788 29.5088 146.942 29.5088C141.096 29.5088 136.342 23.239 136.342 16C136.342 8.761 141.096 2.49124 146.942 2.49124C152.788 2.49124 157.542 8.761 157.542 16Z" fill="#2C2C2C"/>
</g>
<defs>
<clipPath id="clip0_95_2429">
<rect width="160" height="32" fill="white"/>
</clipPath>
</defs>
</svg>
