<svg xmlns="http://www.w3.org/2000/svg" width="555.929" height="76.203" viewBox="0 0 555.929 76.203">
  <g id="Group_1482" data-name="Group 1482" transform="translate(-1287.35 -980.84)">
    <path id="Path_252" data-name="Path 252" d="M45.643-24.9,36.819,19.919,25.025-.611,13.319,19.919,4.5-24.9H1.35l9.61,48.836h3.582L25.025,5.5,35.6,23.938h3.495L48.7-24.9Zm29.7,48.574A17.386,17.386,0,0,0,85.83,20.007a15.389,15.389,0,0,0,5.766-9,69.692,69.692,0,0,0,0-23.326,15.389,15.389,0,0,0-5.766-9,17.386,17.386,0,0,0-10.484-3.669H72.9a17.14,17.14,0,0,0-10.4,3.669,15.126,15.126,0,0,0-5.853,9,74.6,74.6,0,0,0,0,23.326,15.126,15.126,0,0,0,5.853,9,17.14,17.14,0,0,0,10.4,3.669Zm0-45.6c6.115,0,12.144,4.63,13.279,10.134a68.087,68.087,0,0,1,0,22.278c-1.136,5.5-7.164,10.134-13.279,10.134H72.9c-6.115,0-12.144-4.63-13.279-10.134a73.257,73.257,0,0,1,0-22.278c1.136-5.5,7.164-10.134,13.279-10.134Zm47,45.6a17.386,17.386,0,0,0,10.484-3.669,15.389,15.389,0,0,0,5.766-9,69.692,69.692,0,0,0,0-23.326,15.389,15.389,0,0,0-5.766-9,17.386,17.386,0,0,0-10.484-3.669H119.9a17.14,17.14,0,0,0-10.4,3.669,15.126,15.126,0,0,0-5.853,9,74.6,74.6,0,0,0,0,23.326,15.126,15.126,0,0,0,5.853,9,17.14,17.14,0,0,0,10.4,3.669Zm0-45.6c6.115,0,12.144,4.63,13.279,10.134a68.087,68.087,0,0,1,0,22.278c-1.136,5.5-7.164,10.134-13.279,10.134H119.9c-6.115,0-12.144-4.63-13.279-10.134a73.256,73.256,0,0,1,0-22.278c1.136-5.5,7.164-10.134,13.279-10.134Zm58.009-2.97V18.434L152.925-24.9h-3.232V23.938h3.058V-19.569L180.27,23.938h3.145V-24.9ZM207.7,24.2a14.576,14.576,0,0,0,11.532-5.242,11.538,11.538,0,0,0,2.534-7.164,10.7,10.7,0,0,0-2.184-7.076C218.1,2.971,213.73-.087,209.1-3.319c-4.019-2.8-8.474-6.028-9.435-7.251-3.32-4.456.524-8.736.961-9.173,1.835-1.922,3.757-2.534,7.863-2.534,4.368,0,8.736,3.32,9.523,7.251l2.97-.612a11.791,11.791,0,0,0-4.456-6.9,13.027,13.027,0,0,0-8.037-2.8c-4.106,0-7.251.524-10.047,3.495-3.058,3.232-4.63,8.562-1.223,13.1,1.136,1.573,4.543,4.019,10.134,7.863C211.371,2.01,216,5.242,217.225,6.64c2.184,2.708,2.009,7.426-.349,10.4a11.529,11.529,0,0,1-9.173,4.106c-9.173,0-11.008-6.465-11.27-7.775l-2.97.612a12.533,12.533,0,0,0,3.757,6.552C199.839,22.977,203.421,24.2,207.7,24.2ZM245.88-21.84h14.764V-24.9H227.97v3.058h14.852V24.113h3.058Zm37.654,45.691a17.646,17.646,0,0,0,10.746-3.757,13.909,13.909,0,0,0,5.329-10.833V-25.16h-3.058V9.261c0,7.513-7.513,11.532-13.017,11.532h-.7c-5.417,0-13.017-4.019-13.017-11.532V-25.248H266.76V9.261a13.909,13.909,0,0,0,5.329,10.833,17.84,17.84,0,0,0,10.746,3.757Zm39.051-.175c7.6,0,14.852-5.591,16.162-12.58a70.211,70.211,0,0,0,0-23.413,15.043,15.043,0,0,0-5.766-8.911,17.139,17.139,0,0,0-10.4-3.669h-12.93V23.676ZM312.713-21.84h9.872c6.115,0,12.144,4.63,13.192,10.134a67.556,67.556,0,0,1,0,22.19c-1.048,5.5-7.164,10.134-13.192,10.134h-9.872Zm42.371-3.32h-3.058v49.1h3.058Zm31.888,48.836a17.386,17.386,0,0,0,10.484-3.669,15.389,15.389,0,0,0,5.766-9,69.692,69.692,0,0,0,0-23.326,15.389,15.389,0,0,0-5.766-9,17.386,17.386,0,0,0-10.484-3.669h-2.446a17.14,17.14,0,0,0-10.4,3.669,15.126,15.126,0,0,0-5.853,9,74.6,74.6,0,0,0,0,23.326,15.126,15.126,0,0,0,5.853,9,17.14,17.14,0,0,0,10.4,3.669Zm0-45.6c6.115,0,12.144,4.63,13.279,10.134a68.087,68.087,0,0,1,0,22.278c-1.136,5.5-7.164,10.134-13.279,10.134h-2.446c-6.115,0-12.143-4.63-13.279-10.134a73.257,73.257,0,0,1,0-22.278c1.136-5.5,7.164-10.134,13.279-10.134Z" transform="translate(1286 1015.072)" fill="#eaeaeb"/>
    <path id="Path_253" data-name="Path 253" d="M16.1,33.887a7.888,7.888,0,0,0,2.912-6.522V-33.66h-8.27V27.365a8.577,8.577,0,0,1-.582.7L2.82,35.633,8.761,41.34Zm42.866-2.446A25.786,25.786,0,0,0,73.41,26.433a21.589,21.589,0,0,0,8.037-12.461A78.084,78.084,0,0,0,82.728-.935a81.2,81.2,0,0,0-1.281-15.023A21.589,21.589,0,0,0,73.41-28.419a25.786,25.786,0,0,0-14.444-5.008H56.053a25.136,25.136,0,0,0-14.328,5.008,23.036,23.036,0,0,0-8.037,12.461A80.289,80.289,0,0,0,32.407-.935a77.2,77.2,0,0,0,1.281,14.907,23.036,23.036,0,0,0,8.037,12.461,25.136,25.136,0,0,0,14.328,5.008Zm0-56.716c6.29,0,12.7,5.474,14.444,10.947v-.116A70.664,70.664,0,0,1,74.458-.935,69.426,69.426,0,0,1,73.41,12.458v-.116c-1.747,5.474-8.154,10.947-14.444,10.947H56.053c-6.174,0-12.7-5.474-14.328-10.947v.116A80.107,80.107,0,0,1,40.677-.935a81.543,81.543,0,0,1,1.048-13.509v.116C43.357-19.8,49.88-25.275,56.053-25.275ZM129.9-33.311c-2.8,4.309-6.057,9.084-8.853,13.393v-.116c-1.864,2.679-3.611,5.357-5.358,8.036-.582.815-1.281,1.98-1.747,2.8L97.871-33.311h-9.9c3.262,4.891,8.5,12.694,12,17.818l-.116-.116c1.4,2.562,3.378,5.241,5.009,7.686,1.514,2.213,3.611,5.241,5.009,7.453V31.907h8.27V-.469l21.666-32.842Z" transform="translate(1702.544 1015)" fill="#e6d3b5" stroke="#e6d3b5" stroke-width="1"/>
  </g>
</svg>
